<?xml version="1.0" standalone="no"?>
<!DOCTYPE svg PUBLIC "-//W3C//DTD SVG 20010904//EN"
 "http://www.w3.org/TR/2001/REC-SVG-20010904/DTD/svg10.dtd">
<svg version="1.0" xmlns="http://www.w3.org/2000/svg"
 width="150.000000pt" height="30.000000pt" viewBox="0 0 150.000000 30.000000"
 preserveAspectRatio="xMidYMid meet">
<metadata>
Created by potrace 1.13, written by Peter Selinger 2001-2015
</metadata>
<g transform="translate(0.000000,30.000000) scale(0.100000,-0.100000)"
fill="#000000" stroke="none">
<path d="M0 150 l0 -150 750 0 750 0 0 150 0 150 -750 0 -750 0 0 -150z m596
102 c18 -12 36 -52 30 -68 -4 -10 -22 -14 -61 -14 -58 0 -66 -8 -38 -35 12
-12 25 -15 50 -10 30 5 34 4 31 -12 -2 -13 -14 -19 -46 -21 -56 -4 -89 17 -97
62 -7 35 13 90 37 99 20 8 82 8 94 -1z m195 -13 c11 -11 19 -30 17 -42 -3 -19
-10 -22 -60 -25 -61 -3 -69 -10 -41 -37 12 -12 25 -15 50 -10 30 5 34 4 31
-12 -4 -24 -80 -30 -113 -9 -42 28 -41 109 3 142 27 21 89 17 113 -7z m186 6
c11 -8 24 -26 27 -41 9 -34 -10 -91 -34 -104 -26 -14 -67 -12 -77 3 -5 7 -10
-5 -13 -33 -4 -37 -9 -46 -27 -48 -23 -3 -23 -2 -23 111 0 83 4 117 13 120 27
12 114 6 134 -8z"/>
</g>
</svg>
